# xmcd
#
# Track frame offsets:
#	182
#	17795
#	33300
#	50512
#	69982
#	88727
#	102070
#	119647
#	136985
#	157507
#	168005
#
# Disc length: 2477 seconds
#
# Revision: 0
# Processed by: cddbd v1.4b42PL1 Copyright (c) Steve Scherf et al.
# Submitted via: dBpowerAMP V4.0
#
DISCID=8009ab0b
DTITLE=Lorri Morgan - My Heart
DYEAR=1999
DGENRE=Country
TTITLE0=The Things We Do
TTITLE1=Where Does That Leave Me
TTITLE2=I Did
TTITLE3=Strong Enough To Cry
TTITLE4=Maybe Not Tonight ( Duet With Sammy Kershaw)
TTITLE5=Here I Go Again
TTITLE6=Between Midnight ANd Tomorrow
TTITLE7=The Only Good Thing That Looks Good On Me Is You
TTITLE8=Never Been Good At Letting Go
TTITLE9=My Heart
TTITLE10=On This Bed
EXTD=
EXTT0=
EXTT1=
EXTT2=
EXTT3=
EXTT4=
EXTT5=
EXTT6=
EXTT7=
EXTT8=
EXTT9=
EXTT10=
PLAYORDER=
